<?xml version="1.0" encoding="UTF-8"?><svg width="32" height="32" viewBox="0 0 32 32" fill="none" xmlns="http://www.w3.org/2000/svg">
<path fill-rule="evenodd" clip-rule="evenodd" d="M4 8H17.75C18.4404 8 19 8.55964 19 9.25V12H24.75C25.4404 12 26 12.5596 26 13.25V15.25C26 15.6642 26.3358 16 26.75 16H27.25C27.9404 16 28.5 16.5596 28.5 17.25V22H25.7345C25.6115 22.9866 24.7699 23.75 23.75 23.75C22.6454 23.75 21.75 22.8546 21.75 21.75C21.75 20.6454 22.6454 19.75 23.75 19.75C24.7699 19.75 25.6115 20.5134 25.7345 21.5H28V17.25C28 16.8358 27.6642 16.5 27.25 16.5H26.75C26.0596 16.5 25.5 15.9404 25.5 15.25V13.25C25.5 12.8358 25.1642 12.5 24.75 12.5H19V21.5H21.75V21.75V22H11.75V21.75V21.5H18.5V9.25C18.5 8.83579 18.1642 8.5 17.75 8.5H4.5V21.5H7.75V21.75V22H4V8ZM7.75 21.75C7.75 22.8546 8.64543 23.75 9.75 23.75C10.8546 23.75 11.75 22.8546 11.75 21.75C11.75 20.6454 10.8546 19.75 9.75 19.75C8.64543 19.75 7.75 20.6454 7.75 21.75ZM25.25 21.75C25.25 20.9216 24.5784 20.25 23.75 20.25C22.9216 20.25 22.25 20.9216 22.25 21.75C22.25 22.5784 22.9216 23.25 23.75 23.25C24.5784 23.25 25.25 22.5784 25.25 21.75ZM9.75 23.25C10.5784 23.25 11.25 22.5784 11.25 21.75C11.25 20.9216 10.5784 20.25 9.75 20.25C8.92157 20.25 8.25 20.9216 8.25 21.75C8.25 22.5784 8.92157 23.25 9.75 23.25Z" fill="black"/>
</svg>
