<svg width="60" height="29" viewBox="0 0 60 29" fill="none" xmlns="http://www.w3.org/2000/svg">
<path fill-rule="evenodd" clip-rule="evenodd" d="M24.0524 11.1536H21.5124C21.3386 11.1536 21.1908 11.2724 21.1637 11.4339L20.1364 17.5646C20.1161 17.6856 20.2155 17.7947 20.346 17.7947H21.5585C21.7323 17.7947 21.8802 17.6758 21.9072 17.5139L22.1842 15.8604C22.211 15.6986 22.3592 15.5797 22.5326 15.5797H23.3368C25.0098 15.5797 25.9754 14.8176 26.2276 13.3074C26.3412 12.6467 26.2325 12.1275 25.9037 11.7639C25.5428 11.3647 24.9025 11.1536 24.0524 11.1536ZM24.3455 13.3927C24.2065 14.2505 23.5103 14.2505 22.8369 14.2505H22.4537L22.7225 12.6484C22.7385 12.5516 22.8276 12.4802 22.9317 12.4802H23.1073C23.5659 12.4802 23.9986 12.4802 24.2221 12.7263C24.3555 12.8731 24.3964 13.0913 24.3455 13.3927Z" fill="#253B80"/>
<path fill-rule="evenodd" clip-rule="evenodd" d="M31.6439 13.365H30.4276C30.324 13.365 30.2345 13.4364 30.2185 13.5332L30.1646 13.8535L30.0796 13.7373C29.8163 13.3776 29.2291 13.2573 28.6431 13.2573C27.299 13.2573 26.151 14.2156 25.9275 15.5598C25.8113 16.2302 25.9766 16.8714 26.3806 17.3186C26.7513 17.7297 27.2815 17.9009 27.9125 17.9009C28.9956 17.9009 29.596 17.2454 29.596 17.2454L29.5418 17.5636C29.5214 17.6853 29.621 17.7943 29.7506 17.7943H30.8461C31.0204 17.7943 31.1674 17.6754 31.1949 17.5136L31.8523 13.5951C31.8731 13.4745 31.7738 13.365 31.6439 13.365ZM29.9486 15.5933C29.8312 16.2473 29.2797 16.6864 28.5763 16.6864C28.2231 16.6864 27.9408 16.5799 27.7596 16.3778C27.5799 16.1771 27.5115 15.8915 27.5687 15.5734C27.6782 14.9249 28.2391 14.4715 28.9317 14.4715C29.2771 14.4715 29.5579 14.5796 29.7428 14.7833C29.9281 14.9892 30.0017 15.2766 29.9486 15.5933Z" fill="#253B80"/>
<path fill-rule="evenodd" clip-rule="evenodd" d="M38.1219 13.365H36.8997C36.7831 13.365 36.6735 13.4195 36.6074 13.5108L34.9216 15.8482L34.2071 13.602C34.1622 13.4614 34.0244 13.365 33.8684 13.365H32.6674C32.5214 13.365 32.42 13.4992 32.4665 13.6286L33.8127 17.3474L32.547 19.0293C32.4474 19.1619 32.5477 19.3439 32.7197 19.3439H33.9406C34.0563 19.3439 34.1648 19.2908 34.2306 19.2014L38.2958 13.6778C38.393 13.5458 38.2932 13.365 38.1219 13.365Z" fill="#253B80"/>
<path fill-rule="evenodd" clip-rule="evenodd" d="M42.1686 11.1536H39.6283C39.4549 11.1536 39.3071 11.2724 39.2799 11.4339L38.2527 17.5646C38.2323 17.6856 38.3317 17.7947 38.4613 17.7947H39.765C39.8861 17.7947 39.9897 17.7115 40.0085 17.5981L40.3001 15.8604C40.3269 15.6986 40.4751 15.5797 40.6485 15.5797H41.4521C43.1256 15.5797 44.0909 14.8176 44.3434 13.3074C44.4575 12.6467 44.3479 12.1275 44.0192 11.7639C43.6586 11.3647 43.0187 11.1536 42.1686 11.1536ZM42.4618 13.3927C42.3233 14.2505 41.627 14.2505 40.9532 14.2505H40.5704L40.8396 12.6484C40.8556 12.5516 40.9441 12.4802 41.0483 12.4802H41.224C41.6822 12.4802 42.1153 12.4802 42.339 12.7263C42.4722 12.8731 42.5128 13.0913 42.4618 13.3927Z" fill="#179BD7"/>
<path fill-rule="evenodd" clip-rule="evenodd" d="M49.7605 13.365H48.5449C48.4406 13.365 48.3518 13.4364 48.3363 13.5332L48.2824 13.8535L48.197 13.7373C47.9336 13.3776 47.3469 13.2573 46.7608 13.2573C45.4168 13.2573 44.2691 14.2156 44.0456 15.5598C43.9297 16.2302 44.0942 16.8714 44.4983 17.3186C44.8697 17.7297 45.3993 17.9009 46.0303 17.9009C47.1132 17.9009 47.7138 17.2454 47.7138 17.2454L47.6596 17.5636C47.6391 17.6853 47.7386 17.7943 47.869 17.7943H48.9643C49.1377 17.7943 49.2855 17.6754 49.3126 17.5136L49.9704 13.5951C49.9904 13.4745 49.8909 13.365 49.7605 13.365ZM48.0651 15.5933C47.9485 16.2473 47.3962 16.6864 46.6928 16.6864C46.3404 16.6864 46.0573 16.5799 45.8761 16.3778C45.6965 16.1771 45.6287 15.8915 45.6852 15.5734C45.7956 14.9249 46.3557 14.4715 47.0483 14.4715C47.3936 14.4715 47.6743 14.5796 47.8594 14.7833C48.0454 14.9892 48.119 15.2766 48.0651 15.5933Z" fill="#179BD7"/>
<path fill-rule="evenodd" clip-rule="evenodd" d="M51.1946 11.3216L50.1521 17.5644C50.1316 17.6855 50.2312 17.7946 50.3607 17.7946H51.4089C51.583 17.7946 51.7308 17.6757 51.7576 17.5138L52.7856 11.3835C52.8059 11.2625 52.7064 11.1531 52.5768 11.1531H51.4032C51.2996 11.1535 51.2105 11.2248 51.1946 11.3216Z" fill="#179BD7"/>
<path fill-rule="evenodd" clip-rule="evenodd" d="M9.58811 18.986L9.78233 17.8247L9.34968 17.8152H7.28369L8.71938 9.24581C8.72385 9.21996 8.73841 9.19587 8.75953 9.17864C8.78065 9.1615 8.8078 9.1521 8.8361 9.1521H12.3197C13.4761 9.1521 14.2742 9.37869 14.691 9.8258C14.8863 10.0355 15.0108 10.2547 15.0709 10.4959C15.134 10.749 15.1352 11.0514 15.0735 11.4202L15.069 11.4472V11.6835L15.2644 11.7876C15.4289 11.8698 15.5596 11.9639 15.6599 12.0715C15.8271 12.2508 15.9352 12.4788 15.9808 12.749C16.0279 13.0269 16.0123 13.3576 15.9352 13.7321C15.846 14.1627 15.7019 14.5378 15.5073 14.8447C15.3283 15.1276 15.1002 15.3621 14.8295 15.544C14.571 15.7166 14.2638 15.8477 13.9166 15.9317C13.5802 16.0141 13.1965 16.0557 12.7757 16.0557H12.5046C12.3107 16.0557 12.1224 16.1214 11.9746 16.2392C11.8265 16.3596 11.7284 16.5238 11.6983 16.7035L11.6779 16.808L11.3347 18.8549L11.3191 18.9301C11.3151 18.9538 11.308 18.9657 11.2976 18.9738C11.2883 18.9811 11.2749 18.986 11.2619 18.986H9.58811Z" fill="#253B80"/>
<path fill-rule="evenodd" clip-rule="evenodd" d="M15.4495 11.4744C15.4391 11.5369 15.4272 11.6009 15.4138 11.6666C14.9544 13.8868 13.3827 14.6539 11.3754 14.6539H10.3533C10.1078 14.6539 9.90098 14.8217 9.8627 15.0497L9.33944 18.1735L9.1912 19.059C9.16634 19.2086 9.28888 19.3436 9.4493 19.3436H11.2621C11.4768 19.3436 11.6591 19.1967 11.6929 18.9974L11.7108 18.9108L12.052 16.872L12.0739 16.76C12.1074 16.5602 12.2901 16.4133 12.5047 16.4133H12.7759C14.5322 16.4133 15.907 15.7421 16.3089 13.7998C16.4768 12.9884 16.3898 12.3109 15.9457 11.8344C15.8112 11.6908 15.6445 11.5716 15.4495 11.4744Z" fill="#179BD7"/>
<path fill-rule="evenodd" clip-rule="evenodd" d="M14.9685 11.2941C14.8984 11.2749 14.8259 11.2574 14.7516 11.2417C14.677 11.2264 14.6005 11.2127 14.5218 11.2008C14.2461 11.1589 13.9443 11.1389 13.6207 11.1389H10.8903C10.8231 11.1389 10.7592 11.1533 10.702 11.1792C10.5761 11.2362 10.4825 11.3484 10.4598 11.4858L9.87905 14.9487L9.8623 15.0498C9.90059 14.8218 10.1074 14.6541 10.3529 14.6541H11.375C13.3823 14.6541 14.954 13.8867 15.4134 11.6668C15.4272 11.6011 15.4387 11.5371 15.4491 11.4745C15.3328 11.4165 15.2069 11.3669 15.0714 11.3246C15.038 11.3141 15.0035 11.304 14.9685 11.2941Z" fill="#222D65"/>
<path fill-rule="evenodd" clip-rule="evenodd" d="M10.4602 11.4856C10.4828 11.3483 10.5765 11.236 10.7023 11.1794C10.7599 11.1535 10.8234 11.1392 10.8906 11.1392H13.621C13.9446 11.1392 14.2464 11.1592 14.522 11.2011C14.6008 11.2129 14.6773 11.2265 14.7519 11.242C14.8262 11.2577 14.8987 11.2752 14.9688 11.2944C15.0038 11.3042 15.0383 11.3144 15.072 11.3245C15.2077 11.3668 15.3335 11.4167 15.4497 11.4745C15.5864 10.654 15.4487 10.0954 14.9773 9.5895C14.4578 9.03263 13.52 8.79419 12.3201 8.79419H8.83649C8.5913 8.79419 8.3822 8.96203 8.34434 9.19028L6.89336 17.8478C6.86475 18.0191 7.00519 18.1736 7.18859 18.1736H9.33936L9.87937 14.9487L10.4602 11.4856Z" fill="#253B80"/>
</svg>
