<svg width="33" height="11" viewBox="0 0 33 11" fill="none" xmlns="http://www.w3.org/2000/svg">
<mask id="mask0_6199_3667" style="mask-type:alpha" maskUnits="userSpaceOnUse" x="23" y="0" width="10" height="11">
<path fill-rule="evenodd" clip-rule="evenodd" d="M28.1839 0.517882C27.5511 0.517882 27.1834 0.762934 26.938 1.34816C25.8051 4.0501 24.672 6.75205 23.5396 9.45417C23.3812 9.83187 23.2252 10.2105 23.0605 10.6072C23.9643 10.6072 24.8427 10.6091 25.7211 10.6015C25.7673 10.6011 25.8349 10.5273 25.8553 10.4736C26.0055 10.0775 26.1523 9.67986 26.2865 9.27815C26.3315 9.14377 26.3901 9.09505 26.5376 9.09624C27.512 9.10398 28.4868 9.10708 29.4611 9.09451C29.6564 9.09201 29.7123 9.1598 29.7436 9.3348C29.8189 9.75634 29.9143 10.1744 30.0031 10.6016H32.4332V10.5299C32.3547 10.1893 32.2703 9.84992 32.1987 9.5079C31.64 6.83794 31.0841 4.16739 30.5268 1.49714C30.4589 1.17185 30.3879 0.847218 30.3174 0.517882C29.8353 0.517882 29.3611 0.517822 28.8897 0.517822C28.654 0.517822 28.4189 0.517882 28.1839 0.517882ZM28.4514 3.32055C28.4619 3.32257 28.4724 3.3246 28.4828 3.32662C28.7383 4.55164 28.9938 5.77661 29.2528 7.01824H27.1109C27.5611 5.77661 28.0063 4.54855 28.4514 3.32055Z" fill="white"/>
</mask>
<g mask="url(#mask0_6199_3667)">
<path fill-rule="evenodd" clip-rule="evenodd" d="M28.1839 0.517882C27.5511 0.517882 27.1834 0.762934 26.938 1.34816C25.8051 4.0501 24.672 6.75205 23.5396 9.45417C23.3812 9.83187 23.2252 10.2105 23.0605 10.6072C23.9643 10.6072 24.8427 10.6091 25.7211 10.6015C25.7673 10.6011 25.8349 10.5273 25.8553 10.4736C26.0055 10.0775 26.1523 9.67986 26.2865 9.27815C26.3315 9.14377 26.3901 9.09505 26.5376 9.09624C27.512 9.10398 28.4868 9.10708 29.4611 9.09451C29.6564 9.09201 29.7123 9.1598 29.7436 9.3348C29.8189 9.75634 29.9143 10.1744 30.0031 10.6016H32.4332V10.5299C32.3547 10.1893 32.2703 9.84992 32.1987 9.5079C31.64 6.83794 31.0841 4.16739 30.5268 1.49714C30.4589 1.17185 30.3879 0.847218 30.3174 0.517882C29.8353 0.517882 29.3611 0.517822 28.8897 0.517822C28.654 0.517822 28.4189 0.517882 28.1839 0.517882ZM28.4514 3.32055C28.4619 3.32257 28.4724 3.3246 28.4828 3.32662C28.7383 4.55164 28.9938 5.77661 29.2528 7.01824H27.1109C27.5611 5.77661 28.0063 4.54855 28.4514 3.32055Z" fill="url(#paint0_linear_6199_3667)"/>
</g>
<mask id="mask1_6199_3667" style="mask-type:alpha" maskUnits="userSpaceOnUse" x="15" y="0" width="9" height="11">
<path fill-rule="evenodd" clip-rule="evenodd" d="M20.6269 0.338379C20.5767 0.35053 20.5272 0.367983 20.4762 0.374118C19.5588 0.485267 18.6976 0.749856 17.9723 1.34599C17.1386 2.03117 16.7357 2.91297 16.8525 3.99896C16.9305 4.72429 17.3419 5.26997 17.91 5.67924C18.3532 5.99851 18.8507 6.24166 19.319 6.52698C19.6189 6.7096 19.9352 6.8777 20.1984 7.10524C20.5988 7.45149 20.5566 8.00545 20.1169 8.30023C19.9142 8.4361 19.6704 8.54165 19.4313 8.58639C18.5124 8.75853 17.6259 8.60032 16.7673 8.25443C16.5876 8.182 16.4117 8.09998 16.2245 8.01819C16.0647 8.76663 15.9092 9.4947 15.7539 10.2216C15.7868 10.2421 15.8055 10.2576 15.8269 10.2664C15.8986 10.2958 15.9704 10.3259 16.0441 10.3502C16.8927 10.6289 17.7581 10.7693 18.6379 10.7695H18.643C18.9009 10.7693 19.1601 10.7572 19.4204 10.733C20.2441 10.6563 21.0345 10.4494 21.733 9.98593C22.8439 9.24899 23.333 8.20737 23.1681 6.88496C23.075 6.1373 22.6311 5.58424 22.0226 5.18205C21.5058 4.8405 20.9476 4.56245 20.4158 4.24271C20.182 4.10201 19.948 3.94941 19.7505 3.76344C19.4641 3.49373 19.4681 3.12395 19.768 2.86705C19.9427 2.71724 20.1675 2.59847 20.3895 2.53658C20.9357 2.38433 21.4952 2.43031 22.0411 2.55087C22.4403 2.63891 22.8286 2.77615 23.2349 2.89522C23.3832 2.20212 23.5346 1.49371 23.6899 0.767785C23.3819 0.680105 23.0982 0.586945 22.8084 0.520113C22.4909 0.446847 22.1678 0.397885 21.8471 0.338379H20.6269Z" fill="white"/>
</mask>
<g mask="url(#mask1_6199_3667)">
<path fill-rule="evenodd" clip-rule="evenodd" d="M20.6269 0.338379C20.5767 0.35053 20.5272 0.367983 20.4762 0.374118C19.5588 0.485267 18.6976 0.749856 17.9723 1.34599C17.1386 2.03117 16.7357 2.91297 16.8525 3.99896C16.9305 4.72429 17.3419 5.26997 17.91 5.67924C18.3532 5.99851 18.8507 6.24166 19.319 6.52698C19.6189 6.7096 19.9352 6.8777 20.1984 7.10524C20.5988 7.45149 20.5566 8.00545 20.1169 8.30023C19.9142 8.4361 19.6704 8.54165 19.4313 8.58639C18.5124 8.75853 17.6259 8.60032 16.7673 8.25443C16.5876 8.182 16.4117 8.09998 16.2245 8.01819C16.0647 8.76663 15.9092 9.4947 15.7539 10.2216C15.7868 10.2421 15.8055 10.2576 15.8269 10.2664C15.8986 10.2958 15.9704 10.3259 16.0441 10.3502C16.8927 10.6289 17.7581 10.7693 18.6379 10.7695H18.643C18.9009 10.7693 19.1601 10.7572 19.4204 10.733C20.2441 10.6563 21.0345 10.4494 21.733 9.98593C22.8439 9.24899 23.333 8.20737 23.1681 6.88496C23.075 6.1373 22.6311 5.58424 22.0226 5.18205C21.5058 4.8405 20.9476 4.56245 20.4158 4.24271C20.182 4.10201 19.948 3.94941 19.7505 3.76344C19.4641 3.49373 19.4681 3.12395 19.768 2.86705C19.9427 2.71724 20.1675 2.59847 20.3895 2.53658C20.9357 2.38433 21.4952 2.43031 22.0411 2.55087C22.4403 2.63891 22.8286 2.77615 23.2349 2.89522C23.3832 2.20212 23.5346 1.49371 23.6899 0.767785C23.3819 0.680105 23.0982 0.586945 22.8084 0.520113C22.4909 0.446847 22.1678 0.397885 21.8471 0.338379H20.6269Z" fill="url(#paint1_linear_6199_3667)"/>
</g>
<mask id="mask2_6199_3667" style="mask-type:alpha" maskUnits="userSpaceOnUse" x="0" y="0" width="13" height="11">
<path fill-rule="evenodd" clip-rule="evenodd" d="M9.58412 0.672497C8.73049 2.84431 7.87221 5.01427 7.01423 7.18447C6.99791 7.22575 6.97289 7.26358 6.93709 7.33089C6.91416 7.21777 6.89689 7.13784 6.8817 7.05754C6.53533 5.22073 6.19211 3.38337 5.84139 1.54739C5.71755 0.898845 5.24455 0.518222 4.58933 0.518044C3.20789 0.517567 1.82645 0.517925 0.445071 0.517925C0.157192 0.517925 0.157192 0.517925 0.15332 0.820516C0.185426 0.828558 0.219497 0.837492 0.253747 0.845593C1.02726 1.02929 1.78553 1.25522 2.51604 1.57688C2.97177 1.77761 3.21474 2.10463 3.33613 2.58335C3.99772 5.19309 4.67808 7.79812 5.34724 10.4058C5.38578 10.556 5.44034 10.6147 5.60772 10.6123C6.3969 10.6014 7.18643 10.604 7.97573 10.6106C8.12 10.6117 8.19261 10.5745 8.25194 10.4322C9.49751 7.4465 10.7498 4.46371 12.0004 1.48026C12.1314 1.16778 12.2606 0.854588 12.3971 0.526145C12.3238 0.52269 12.272 0.518163 12.2202 0.518163C11.9935 0.518103 11.7668 0.518222 11.5401 0.518401C10.9654 0.518818 10.3907 0.519235 9.81612 0.514708C9.81446 0.514708 9.81285 0.514648 9.81124 0.514648C9.68663 0.514648 9.6301 0.555391 9.58412 0.672497Z" fill="white"/>
</mask>
<g mask="url(#mask2_6199_3667)">
<path fill-rule="evenodd" clip-rule="evenodd" d="M9.58412 0.672497C8.73049 2.84431 7.87221 5.01427 7.01423 7.18447C6.99791 7.22575 6.97289 7.26358 6.93709 7.33089C6.91416 7.21777 6.89689 7.13784 6.8817 7.05754C6.53533 5.22073 6.19211 3.38337 5.84139 1.54739C5.71755 0.898845 5.24455 0.518222 4.58933 0.518044C3.20789 0.517567 1.82645 0.517925 0.445071 0.517925C0.157192 0.517925 0.157192 0.517925 0.15332 0.820516C0.185426 0.828558 0.219497 0.837492 0.253747 0.845593C1.02726 1.02929 1.78553 1.25522 2.51604 1.57688C2.97177 1.77761 3.21474 2.10463 3.33613 2.58335C3.99772 5.19309 4.67808 7.79812 5.34724 10.4058C5.38578 10.556 5.44034 10.6147 5.60772 10.6123C6.3969 10.6014 7.18643 10.604 7.97573 10.6106C8.12 10.6117 8.19261 10.5745 8.25194 10.4322C9.49751 7.4465 10.7498 4.46371 12.0004 1.48026C12.1314 1.16778 12.2606 0.854588 12.3971 0.526145C12.3238 0.52269 12.272 0.518163 12.2202 0.518163C11.9935 0.518103 11.7668 0.518222 11.5401 0.518401C10.9654 0.518818 10.3907 0.519235 9.81612 0.514708C9.81446 0.514708 9.81285 0.514648 9.81124 0.514648C9.68663 0.514648 9.6301 0.555391 9.58412 0.672497Z" fill="url(#paint2_linear_6199_3667)"/>
</g>
<mask id="mask3_6199_3667" style="mask-type:alpha" maskUnits="userSpaceOnUse" x="11" y="0" width="6" height="11">
<path fill-rule="evenodd" clip-rule="evenodd" d="M13.5073 0.528809C12.7888 3.88597 12.0723 7.23497 11.3506 10.6076H11.5656C12.2832 10.6076 13.0009 10.5993 13.7182 10.613C13.9183 10.617 13.9866 10.5557 14.0273 10.3629C14.6138 7.58861 15.209 4.81602 15.802 2.04308C15.9092 1.54166 16.0158 1.04012 16.1247 0.528809H13.5073Z" fill="white"/>
</mask>
<g mask="url(#mask3_6199_3667)">
<path fill-rule="evenodd" clip-rule="evenodd" d="M13.5073 0.528809C12.7888 3.88597 12.0723 7.23497 11.3506 10.6076H11.5656C12.2832 10.6076 13.0009 10.5993 13.7182 10.613C13.9183 10.617 13.9866 10.5557 14.0273 10.3629C14.6138 7.58861 15.209 4.81602 15.802 2.04308C15.9092 1.54166 16.0158 1.04012 16.1247 0.528809H13.5073Z" fill="url(#paint3_linear_6199_3667)"/>
</g>
<defs>
<linearGradient id="paint0_linear_6199_3667" x1="2.0528" y1="22.057" x2="32.3566" y2="21.885" gradientUnits="userSpaceOnUse">
<stop stop-color="#262860"/>
<stop offset="1" stop-color="#3D439A"/>
</linearGradient>
<linearGradient id="paint1_linear_6199_3667" x1="2.03578" y1="25.5859" x2="32.3397" y2="25.4705" gradientUnits="userSpaceOnUse">
<stop stop-color="#262860"/>
<stop offset="1" stop-color="#3D439A"/>
</linearGradient>
<linearGradient id="paint2_linear_6199_3667" x1="2.08005" y1="18.075" x2="32.3828" y2="17.7819" gradientUnits="userSpaceOnUse">
<stop stop-color="#262860"/>
<stop offset="1" stop-color="#3D439A"/>
</linearGradient>
<linearGradient id="paint3_linear_6199_3667" x1="2.00647" y1="37.6528" x2="32.3103" y2="37.6081" gradientUnits="userSpaceOnUse">
<stop stop-color="#262860"/>
<stop offset="1" stop-color="#3D439A"/>
</linearGradient>
</defs>
</svg>
