<svg width="22" height="22" viewBox="0 0 22 22" fill="none" xmlns="http://www.w3.org/2000/svg">
<path d="M11.7441 2.20413C12.5561 2.19683 13.3678 2.20125 14.1799 2.20157C14.1831 3.0582 14.1833 3.91515 14.1796 4.77174C13.6548 4.77081 13.1296 4.77302 12.6049 4.77081C12.272 4.75008 11.9304 5.00233 11.8699 5.33221C11.8619 5.9054 11.867 6.47891 11.8673 7.05213C12.637 7.0553 13.4067 7.05117 14.1764 7.05406C14.12 7.88326 14.0171 8.70869 13.8965 9.53091C13.2166 9.53729 12.5364 9.53027 11.8565 9.53444C11.8504 11.9801 11.8597 14.4258 11.8518 16.8714C10.8419 16.8755 9.83152 16.8695 8.82174 16.8743C8.80261 14.4283 8.8233 11.9811 8.81123 9.53476C8.31857 9.52963 7.82563 9.53829 7.33301 9.53063C7.3349 8.7084 7.33365 7.88622 7.33393 7.06428C7.82623 7.05826 8.31889 7.06556 8.81123 7.06079C8.82619 6.26147 8.79623 5.46122 8.82683 4.66257C8.87619 4.03008 9.11725 3.39286 9.59014 2.95597C10.1624 2.4111 10.9763 2.22707 11.7441 2.20413Z" fill="black"/>
</svg>
