<?xml version="1.0" encoding="UTF-8"?><svg width="32" height="32" viewBox="0 0 32 32" fill="none" xmlns="http://www.w3.org/2000/svg">
<path fill-rule="evenodd" clip-rule="evenodd" d="M18.6864 28.9293C21.6263 28.3589 24.2863 26.8095 26.2326 24.5335C28.179 22.2575 29.297 19.3894 29.4043 16.3966C29.5115 13.4038 28.6018 10.4629 26.8234 8.05344C25.0451 5.64396 22.5029 3.90798 19.6114 3.12854C16.7199 2.3491 13.6496 2.57217 10.9011 3.76137C8.17444 4.94117 5.92401 7.00283 4.51037 9.6144L4.48443 9.60686C3.15655 9.22858 1.77343 9.99837 1.39515 11.3263L0.684529 13.8207C0.306244 15.1486 1.07604 16.5317 2.40392 16.91C3.7318 17.2883 5.11492 16.5185 5.49321 15.1906L6.20383 12.6961C6.53258 11.5421 5.99422 10.3464 4.97601 9.80476C6.33781 7.31432 8.49249 5.34835 11.0997 4.22026C13.7445 3.07593 16.6989 2.86128 19.4812 3.61131C22.2636 4.36134 24.7099 6.03181 26.4212 8.35037C28.1324 10.6689 29.0078 13.4988 28.9046 16.3787C28.8013 19.2585 27.7256 22.0185 25.8526 24.2085C23.9797 26.3986 21.4202 27.8896 18.5912 28.4385C15.7623 28.9873 12.8308 28.5617 10.2748 27.2309C7.71876 25.9001 5.68894 23.7427 4.51624 21.1104C4.46006 20.9843 4.31227 20.9276 4.18614 20.9838C4.06002 21.04 4.00333 21.1878 4.05952 21.3139C5.2782 24.0494 7.38762 26.2914 10.0439 27.6744C12.7001 29.0574 15.7465 29.4997 18.6864 28.9293ZM21.9121 13.8112L16.1693 8.59037L9.91212 13.8047V23.1717H21.9121V13.8112ZM10.4121 22.6717V14.0388L16.155 9.25313L21.4121 14.0323V22.6717H19.4121V16.6718H12.4121V22.6717H10.4121ZM18.9121 17.1718V22.6717H12.9121V17.1718H18.9121ZM5.01234 15.0536L5.72296 12.5592C6.02559 11.4969 5.40975 10.3904 4.34744 10.0877C3.28514 9.7851 2.17864 10.4009 1.87601 11.4632L1.1654 13.9577C0.862769 15.02 1.47861 16.1265 2.54091 16.4291C3.60322 16.7318 4.70971 16.1159 5.01234 15.0536ZM4.00978 11.6861C4.14785 11.6861 4.25978 11.5741 4.25978 11.4361C4.25978 11.298 4.14785 11.1861 4.00978 11.1861C3.87171 11.1861 3.75978 11.298 3.75978 11.4361C3.75978 11.5741 3.87171 11.6861 4.00978 11.6861Z" fill="black"/>
</svg>
