<svg width="25" height="25" viewBox="0 0 25 25" fill="none" xmlns="http://www.w3.org/2000/svg">
<path fill-rule="evenodd" clip-rule="evenodd" d="M9.05336 4.24974C8.16838 4.29014 7.56402 4.43066 7.03518 4.63621C6.48042 4.84499 5.97785 5.17225 5.56257 5.59519C5.13953 6.01043 4.81217 6.51301 4.60333 7.06779C4.39795 7.59667 4.25742 8.20103 4.21719 9.08601C4.17656 9.97268 4.16699 10.2559 4.16699 12.5139C4.16699 14.772 4.17656 15.0552 4.21719 15.9419C4.25759 16.8268 4.39811 17.4312 4.60366 17.96C4.81244 18.5148 5.1397 19.0174 5.56264 19.4326C5.97792 19.8556 6.48049 20.1828 7.03524 20.3916C7.56412 20.5972 8.16848 20.7377 9.05343 20.7781C9.94023 20.8186 10.2234 20.8281 12.4813 20.8281C14.7393 20.8281 15.0226 20.8186 15.9093 20.7781C16.7943 20.7377 17.3986 20.5972 17.9275 20.3916C19.0442 19.9597 19.9271 19.0768 20.359 17.96C20.5646 17.4312 20.7051 16.8268 20.7455 15.9419C20.786 15.0551 20.7955 14.7719 20.7955 12.5139C20.7955 10.2559 20.786 9.97268 20.7455 9.08601C20.7051 8.20103 20.5646 7.59667 20.359 7.06783C20.1503 6.51304 19.823 6.0105 19.4001 5.59522C18.9848 5.17218 18.4822 4.84486 17.9274 4.63604C17.3985 4.43066 16.7941 4.29014 15.9091 4.24991C15.0225 4.20928 14.7392 4.19971 12.4812 4.19971C10.2233 4.19971 9.94003 4.20928 9.05336 4.24974ZM15.841 5.74627C16.6516 5.78327 17.0918 5.91868 17.3848 6.03255C17.7459 6.16581 18.0726 6.37835 18.3408 6.65449C18.6169 6.92268 18.8294 7.24934 18.9627 7.61047C19.0766 7.90344 19.212 8.34367 19.249 9.15429C19.289 10.031 19.2975 10.294 19.2975 12.514C19.2975 14.7341 19.289 14.997 19.249 15.8738C19.212 16.6844 19.0765 17.1246 18.9627 17.4176C18.683 18.1427 18.1099 18.7158 17.3848 18.9955C17.0918 19.1094 16.6516 19.2448 15.841 19.2818C14.9644 19.3218 14.7014 19.3303 12.4812 19.3303C10.261 19.3303 9.99815 19.3218 9.12148 19.2818C8.31085 19.2448 7.87066 19.1093 7.57765 18.9955C7.21653 18.8622 6.88986 18.6497 6.62168 18.3736C6.34554 18.1054 6.133 17.7787 5.99973 17.4176C5.88587 17.1246 5.75042 16.6844 5.71346 15.8738C5.67346 14.9971 5.66498 14.7341 5.66498 12.514C5.66498 10.294 5.67346 10.0311 5.71346 9.15429C5.75046 8.34367 5.88587 7.90347 5.99973 7.61047C6.13303 7.24931 6.34557 6.92264 6.62174 6.65446C6.88993 6.37832 7.2166 6.16578 7.57772 6.03251C7.87069 5.91865 8.31092 5.78321 9.12155 5.74624C9.99828 5.70624 10.2612 5.69776 12.4813 5.69776C14.7012 5.69779 14.9642 5.70627 15.841 5.74627ZM9.70986 12.5139C9.70986 10.9833 10.9507 9.74253 12.4813 9.74253C14.0119 9.74257 15.2526 10.9834 15.2526 12.5139C15.2526 14.0445 14.0118 15.2853 12.4812 15.2853C10.9506 15.2853 9.70983 14.0445 9.70986 12.5139ZM8.21175 12.5139C8.21175 14.8719 10.1233 16.7834 12.4812 16.7834C14.8392 16.7834 16.7507 14.8719 16.7507 12.5139C16.7507 10.156 14.8392 8.24445 12.4812 8.24445C10.1233 8.24445 8.21175 10.156 8.21175 12.5139ZM16.9194 9.07347C17.4704 9.07347 17.917 8.6268 17.917 8.07578C17.917 7.52479 17.4704 7.07809 16.9194 7.07809C16.3684 7.07809 15.9217 7.52479 15.9217 8.07578C15.9217 8.6268 16.3684 9.07347 16.9194 9.07347Z" fill="black"/>
</svg>
