<?xml version="1.0" encoding="UTF-8"?><svg width="32" height="32" viewBox="0 0 32 32" fill="none" xmlns="http://www.w3.org/2000/svg">
<path fill-rule="evenodd" clip-rule="evenodd" d="M8.23986 15.7426L16.1771 29.5006L24.1144 15.7426C27.6388 9.63367 23.2298 2 16.1771 2C9.12439 2 4.71546 9.63367 8.23986 15.7426ZM23.6813 15.4928L16.1771 28.5L8.67296 15.4928C5.34086 9.71715 9.50922 2.5 16.1771 2.5C22.845 2.5 27.0134 9.71714 23.6813 15.4928ZM19.6775 11.5001C19.6775 13.4331 18.1105 15.0001 16.1775 15.0001C14.2445 15.0001 12.6775 13.4331 12.6775 11.5001C12.6775 9.56707 14.2445 8.00007 16.1775 8.00007C18.1105 8.00007 19.6775 9.56707 19.6775 11.5001ZM20.1775 11.5001C20.1775 13.7092 18.3866 15.5001 16.1775 15.5001C13.9683 15.5001 12.1775 13.7092 12.1775 11.5001C12.1775 9.29093 13.9683 7.50007 16.1775 7.50007C18.3866 7.50007 20.1775 9.29093 20.1775 11.5001Z" fill="black"/>
</svg>
