<svg width="25" height="16" viewBox="0 0 25 16" fill="none" xmlns="http://www.w3.org/2000/svg">
<path fill-rule="evenodd" clip-rule="evenodd" d="M9.33008 13.6274H15.6904V2.19775H9.33008V13.6274Z" fill="#F16522"/>
<mask id="mask0_6199_3685" style="mask-type:alpha" maskUnits="userSpaceOnUse" x="0" y="0" width="13" height="16">
<path fill-rule="evenodd" clip-rule="evenodd" d="M0.75 0.643555H12.5108V15.1817H0.75V0.643555Z" fill="white"/>
</mask>
<g mask="url(#mask0_6199_3685)">
<path fill-rule="evenodd" clip-rule="evenodd" d="M9.73453 7.91262C9.73453 5.59392 10.8203 3.52894 12.5108 2.1978C11.2742 1.22426 9.71429 0.643555 8.01858 0.643555C4.00424 0.643555 0.75 3.89821 0.75 7.91262C0.75 11.927 4.00424 15.1817 8.01858 15.1817C9.71429 15.1817 11.2742 14.601 12.5108 13.6274C10.8203 12.2963 9.73453 10.2314 9.73453 7.91262Z" fill="#E41B24"/>
</g>
<path fill-rule="evenodd" clip-rule="evenodd" d="M24.0452 12.4166V12.1347H23.9714L23.8869 12.3288L23.8022 12.1347H23.7285V12.4166H23.7802V12.2037L23.8596 12.3875H23.9137L23.993 12.2033V12.4166H24.0452ZM23.5786 12.4166V12.1826H23.673V12.1351H23.4325V12.1826H23.5269V12.4166H23.5786ZM24.2721 7.91214C24.2721 11.927 21.0179 15.1811 17.0035 15.1811C15.3079 15.1811 13.7479 14.6004 12.5117 13.6269C14.2023 12.2963 15.2876 10.2308 15.2876 7.91214C15.2876 5.59344 14.2023 3.52839 12.5117 2.19732C13.7479 1.22426 15.3079 0.643555 17.0035 0.643555C21.0179 0.643555 24.2721 3.89773 24.2721 7.91214Z" fill="#F89E1B"/>
</svg>
