<?xml version="1.0" encoding="UTF-8"?><svg width="32" height="32" viewBox="0 0 32 32" fill="none" xmlns="http://www.w3.org/2000/svg">
<path fill-rule="evenodd" clip-rule="evenodd" d="M23.1346 26.7513C20.463 28.5447 17.2299 29.3045 14.0391 28.889C10.8482 28.4736 7.91763 26.9111 5.79429 24.4933C3.67094 22.0756 2.49999 18.9678 2.49999 15.75C2.49999 15.6119 2.61191 15.5 2.74999 15.5C2.88806 15.5 2.99999 15.6119 2.99999 15.75C2.99999 18.8463 4.12676 21.8369 6.16997 24.1634C8.21319 26.4899 11.0332 27.9934 14.1037 28.3932C17.1741 28.793 20.2851 28.0619 22.856 26.3362C25.4269 24.6105 27.2819 22.0082 28.0748 19.0151C28.8678 16.022 28.5444 12.8426 27.1651 10.0704C25.7858 7.29821 23.4448 5.12269 20.5792 3.94991C17.7135 2.77713 14.519 2.68725 11.5919 3.69704C8.93093 4.61504 6.6563 6.38483 5.11297 8.72025L8.64171 7.02463C8.76616 6.96483 8.91552 7.01724 8.97532 7.14169C9.03512 7.26614 8.98271 7.4155 8.85826 7.4753L4.56334 9.53909C4.48588 9.57632 4.39472 9.57114 4.32197 9.52538C4.24921 9.47962 4.20507 9.3997 4.20507 9.31376L4.20507 5.01159C4.20507 4.87352 4.317 4.76159 4.45507 4.76159C4.59314 4.76159 4.70507 4.87352 4.70507 5.01159L4.70507 8.43063C6.30875 6.01052 8.66882 4.17655 11.4289 3.22438C14.4707 2.17498 17.7905 2.26839 20.7686 3.48716C23.7466 4.70593 26.1794 6.96677 27.6128 9.84766C29.0461 12.7286 29.3822 16.0326 28.5582 19.1431C27.7341 22.2536 25.8063 24.9579 23.1346 26.7513Z" fill="black"/>
</svg>
