<svg width="33" height="33" viewBox="0 0 33 33" fill="none" xmlns="http://www.w3.org/2000/svg">
<mask id="mask0_6200_3979" style="mask-type:alpha" maskUnits="userSpaceOnUse" x="2" y="8" width="29" height="18">
<path fill-rule="evenodd" clip-rule="evenodd" d="M2.92773 8.43433H30.3536V25.5753H2.92773V8.43433Z" fill="white"/>
</mask>
<g mask="url(#mask0_6200_3979)">
<path fill-rule="evenodd" clip-rule="evenodd" d="M30.3536 24.6614C30.3536 25.1662 29.9441 25.5753 29.4392 25.5753H3.84171C3.33684 25.5753 2.92773 25.1662 2.92773 24.6614V9.3483C2.92773 8.84343 3.33684 8.43433 3.84171 8.43433H29.4392C29.9441 8.43433 30.3536 8.84343 30.3536 9.3483V24.6614Z" fill="#0078A9"/>
</g>
<path fill-rule="evenodd" clip-rule="evenodd" d="M11.4367 16.6057V16.3316L11.3056 16.6057H10.1701L10.0275 16.3114V16.6057H7.90503L7.65423 16.0121H7.22895L6.96328 16.6057H5.86279V14.8139L6.66941 12.9885H8.21421L8.43111 13.5057V12.9925H10.3201L10.7355 13.8632L11.142 12.9885H17.1056C17.1056 12.9885 17.418 12.9844 17.624 13.1291L17.6227 12.9885H19.1251V13.1862C19.1251 13.1862 19.3953 12.9885 19.7948 12.9885H22.446L22.6787 13.5133V12.9885H24.3776L24.6859 13.5133V12.9885H26.3099V16.6092H24.6415L24.2495 15.978V16.6057H22.1755L21.8839 15.9592H21.4774L21.2041 16.6057H19.949C19.949 16.6057 19.4808 16.5998 19.1299 16.3486V16.6057H16.6311V15.7611C16.6311 15.6384 16.5371 15.6469 16.5371 15.6469H16.4457V16.6057H11.4367Z" fill="white"/>
<path fill-rule="evenodd" clip-rule="evenodd" d="M10.1899 17.3899H13.4733L13.9473 17.9263L14.4318 17.3899H16.9562C16.9562 17.3899 17.1932 17.3958 17.4185 17.5158V17.3899H19.6664C19.9518 17.3899 20.1912 17.5325 20.1912 17.5325V17.3899H23.0807V17.5215C23.0807 17.5215 23.2865 17.3899 23.5633 17.3899H25.4457V17.5215C25.4457 17.5215 25.6827 17.3899 25.9335 17.3899H27.4116V20.8018C27.4116 20.8018 27.2173 21.0215 26.8154 21.0215H24.8667V20.9131C24.8667 20.9131 24.6813 21.0215 24.3986 21.0215H19.2224V20.1397C19.2224 20.0531 19.1847 20.0371 19.1073 20.0371H19.0361V21.0215H17.4185V20.0433C17.4185 20.0433 17.2389 20.1397 16.9392 20.1397H16.3575V21.0215H14.3636L13.9101 20.4681L13.4249 21.0215H10.1899V17.3899Z" fill="white"/>
<path fill-rule="evenodd" clip-rule="evenodd" d="M20.5381 17.9343H22.5987V18.4869H21.1689V18.9686H22.5585V19.4555H21.1689V19.9624H22.5987V20.5013H20.5381V17.9343Z" fill="#0078A9"/>
<path fill-rule="evenodd" clip-rule="evenodd" d="M26.579 18.9347C27.3533 18.9744 27.4182 19.3612 27.4182 19.7738C27.4182 20.2547 27.0227 20.5131 26.6103 20.5131H25.2863V19.9625H26.3177C26.4927 19.9625 26.7533 19.9625 26.7533 19.7161C26.7533 19.5991 26.7076 19.5244 26.5213 19.5047C26.4384 19.4929 26.1323 19.4758 26.0857 19.4749C25.3863 19.4566 25.2231 19.1085 25.2231 18.6847C25.2231 18.2035 25.5614 17.9404 25.9742 17.9404H27.2977V18.4906H26.3291C26.1089 18.4928 25.871 18.4645 25.871 18.7134C25.871 18.871 25.9884 18.9027 26.1373 18.9172C26.1892 18.9172 26.5329 18.9351 26.579 18.9347Z" fill="#0078A9"/>
<path fill-rule="evenodd" clip-rule="evenodd" d="M24.2061 18.9347C24.9808 18.9744 25.0458 19.3612 25.0458 19.7738C25.0458 20.2547 24.6507 20.5131 24.2378 20.5131H22.9143V19.9625H23.9457C24.1202 19.9625 24.3813 19.9625 24.3813 19.7161C24.3813 19.5991 24.3351 19.5244 24.1488 19.5047C24.066 19.4929 23.7594 19.4758 23.7137 19.4749C23.0134 19.4566 22.8516 19.1085 22.8516 18.6847C22.8516 18.2035 23.1894 17.9404 23.6018 17.9404H24.9253V18.4906H23.9571C23.7365 18.4928 23.4986 18.4645 23.4986 18.7134C23.4986 18.871 23.6164 18.9027 23.7653 18.9172C23.8167 18.9172 24.1604 18.9351 24.2061 18.9347Z" fill="#0078A9"/>
<path fill-rule="evenodd" clip-rule="evenodd" d="M16.5213 19.107H15.7363V18.4908H16.5239C16.7878 18.4908 16.8711 18.6598 16.8711 18.7858C16.8711 18.9578 16.7793 19.107 16.5213 19.107ZM15.1004 20.2604L14.195 19.189L15.1004 18.1862V20.2604ZM12.6913 19.9624H11.2381V19.4555H12.6281V18.9686H11.2381V18.4869L12.7709 18.4904L13.3844 19.189L12.6913 19.9624ZM16.7336 17.9398H14.5217L13.7997 18.7364L13.1008 17.9343H10.6167V20.5013H13.0202L13.7769 19.6532L14.5158 20.5072H15.7251V19.6357H16.5729C16.8995 19.6357 17.4958 19.6245 17.4958 18.7248C17.4958 18.0828 17.0432 17.9398 16.7336 17.9398Z" fill="#0078A9"/>
<path fill-rule="evenodd" clip-rule="evenodd" d="M19.2337 19.0724H18.4487V18.4908H19.2363C19.4998 18.4908 19.5831 18.6598 19.5831 18.7857C19.5831 18.9576 19.4917 19.0724 19.2337 19.0724ZM19.7777 19.338C20.1219 19.1664 20.2133 18.937 20.2133 18.6274C20.2133 18.0777 19.7668 17.9402 19.457 17.9402H17.8184V20.5072H18.4487V19.6015H19.2739C19.4917 19.6015 19.5774 19.8193 19.5831 20.0371L19.5997 20.5072H20.2133L20.1903 19.9798C20.1903 19.567 20.0764 19.3722 19.7777 19.338Z" fill="#0078A9"/>
<mask id="mask1_6200_3979" style="mask-type:alpha" maskUnits="userSpaceOnUse" x="2" y="8" width="29" height="18">
<path fill-rule="evenodd" clip-rule="evenodd" d="M2.92773 25.5753H30.3536V8.43433H2.92773V25.5753Z" fill="white"/>
</mask>
<g mask="url(#mask1_6200_3979)">
<path fill-rule="evenodd" clip-rule="evenodd" d="M18.0708 16.0728H18.7012V13.5027H18.0708V16.0728Z" fill="#0078A9"/>
<path fill-rule="evenodd" clip-rule="evenodd" d="M12.9116 13.5059H14.9713V14.0584H13.542V14.5401H14.9311V15.027H13.542V15.5339H14.9713V16.0729H12.9116V13.5059Z" fill="#0078A9"/>
<path fill-rule="evenodd" clip-rule="evenodd" d="M16.7606 14.6378H15.9756V14.0562H16.7636C17.0267 14.0562 17.1104 14.2252 17.1104 14.3512C17.1104 14.5235 17.0186 14.6378 16.7606 14.6378ZM17.305 14.9035C17.6492 14.7323 17.7406 14.5025 17.7406 14.1928C17.7406 13.6427 17.2936 13.5056 16.9843 13.5056H15.3452V16.0726H15.9756V15.1674H16.8008C17.0186 15.1674 17.1047 15.3847 17.1104 15.6025L17.1275 16.0726H17.7406L17.7181 15.5452C17.7181 15.1328 17.6033 14.938 17.305 14.9035Z" fill="#0078A9"/>
<path fill-rule="evenodd" clip-rule="evenodd" d="M7.01741 14.9459L7.39328 14.0486L7.78489 14.9459H7.01741ZM11.4581 13.5059L10.6845 15.2278L9.91372 13.5059H8.92562V15.9782L7.82534 13.5059H6.99139L5.86816 16.0729H6.53309L6.77908 15.4998H8.03722L8.28671 16.0729H9.55534V14.1673L10.398 16.0729H10.9711L11.8333 14.199V16.0729H12.4637V13.5059H11.4581Z" fill="#0078A9"/>
<path fill-rule="evenodd" clip-rule="evenodd" d="M21.3338 14.9471L21.7092 14.0497L22.1045 14.9471H21.3338ZM25.2051 13.5044V15.2818L24.1422 13.5044H23.2107V15.9153L22.1371 13.5057H21.3029L20.4349 15.4942C20.4349 15.4942 20.068 15.4942 20.0308 15.4852C19.8793 15.4539 19.6418 15.3468 19.6388 14.8942V14.7079C19.6388 14.1061 19.9654 14.0622 20.3844 14.0622H20.7734V13.5044H19.9506C19.6639 13.5044 19.0405 13.723 19.0195 14.7776C19.0051 15.4883 19.3147 16.074 20.0137 16.074H20.8449L21.0908 15.5009H22.3485L22.5978 16.074H23.8415V14.1943L24.9757 16.074H25.8354V13.5044H25.2051Z" fill="#0078A9"/>
</g>
</svg>
