<svg width="69" height="34" viewBox="0 0 69 34" fill="none" xmlns="http://www.w3.org/2000/svg">
<path d="M62.2611 14.2571L60.5378 13.3062L58.7896 12.3408C57.6341 11.7021 56.1898 12.5041 56.1898 13.7913V14.0074C56.1898 14.1274 56.2545 14.2379 56.3641 14.2955L57.1759 14.7422C57.4 14.8671 57.679 14.7086 57.679 14.4588V13.9449C57.679 13.6904 57.9628 13.5319 58.1919 13.6568L59.7857 14.5405L61.3745 15.4194C61.6036 15.5442 61.6036 15.866 61.3745 15.9909L59.7857 16.8698L58.1919 17.7535C57.9628 17.8783 57.679 17.7198 57.679 17.4653V17.2108C57.679 15.9236 56.2346 15.1168 55.0791 15.7604L53.3309 16.7257L51.6077 17.6766C50.4472 18.3202 50.4472 19.9387 51.6077 20.5822L53.3309 21.5332L55.0791 22.4985C56.2346 23.1373 57.679 22.3352 57.679 21.0481V20.832C57.679 20.7119 57.6142 20.6015 57.5046 20.5438L56.6928 20.0972C56.4687 19.9723 56.1898 20.1308 56.1898 20.3805V20.8944C56.1898 21.149 55.9059 21.3074 55.6768 21.1826L54.083 20.2989L52.4942 19.42C52.2651 19.2951 52.2651 18.9733 52.4942 18.8485L54.083 17.9696L55.6768 17.0859C55.9059 16.961 56.1898 17.1195 56.1898 17.3741V17.6286C56.1898 18.9157 57.6341 19.7226 58.7896 19.079L60.5378 18.1137L62.2611 17.1627C63.4215 16.5144 63.4215 14.9007 62.2611 14.2571Z" fill="black"/>
<path d="M50.9557 14.574L46.9214 22.6088H45.248L46.7571 19.6072L44.3813 14.574H46.0996L47.6237 17.9455L49.2872 14.574H50.9557Z" fill="black"/>
<path d="M10.6178 17.427C10.6178 16.4665 9.89557 15.7941 9.00904 15.7941C8.1225 15.7941 7.40032 16.4809 7.40032 17.427C7.40032 18.3636 8.1225 19.0599 9.00904 19.0599C9.89557 19.0599 10.6178 18.3876 10.6178 17.427ZM10.6327 20.2798V19.5402C10.1944 20.0541 9.54195 20.3711 8.76499 20.3711C7.14133 20.3711 5.91113 19.1176 5.91113 17.427C5.91113 15.7509 7.19113 14.4734 8.79985 14.4734C9.5569 14.4734 10.1944 14.7952 10.6327 15.2946V14.5742H12.087V20.2798H10.6327Z" fill="black"/>
<path d="M19.1594 19.0118C18.6514 19.0118 18.5069 18.8293 18.5069 18.349V15.818H19.4433V14.5741H18.5069V13.1813H17.0177V14.5741H15.0953V14.0074C15.0953 13.5271 15.2845 13.3446 15.8075 13.3446H16.1362V12.24H15.419C14.1888 12.24 13.6061 12.629 13.6061 13.8153V14.5789H12.7793V15.818H13.6061V20.2797H15.0953V15.818H17.0177V18.6131C17.0177 19.7754 17.4809 20.2797 18.6862 20.2797H19.4532V19.0118H19.1594Z" fill="black"/>
<path d="M24.5082 16.9131C24.4036 16.1735 23.776 15.7268 23.0389 15.7268C22.3068 15.7268 21.6991 16.159 21.5497 16.9131H24.5082ZM21.5348 17.8016C21.6394 18.6468 22.2669 19.1271 23.0638 19.1271C23.6914 19.1271 24.1745 18.8437 24.4584 18.3875H25.9874C25.6338 19.5978 24.5082 20.371 23.029 20.371C21.2409 20.371 19.9858 19.1607 19.9858 17.4366C19.9858 15.7124 21.3107 14.4685 23.0638 14.4685C24.8269 14.4685 26.1069 15.722 26.1069 17.4366C26.1069 17.5614 26.097 17.6863 26.0721 17.8016H21.5348Z" fill="black"/>
<path d="M35.59 17.427C35.59 16.5048 34.8678 15.794 33.9813 15.794C33.0948 15.794 32.3726 16.4808 32.3726 17.427C32.3726 18.3635 33.0948 19.0599 33.9813 19.0599C34.8678 19.0599 35.59 18.3539 35.59 17.427ZM30.9033 22.609V14.5742H32.3576V15.3138C32.7959 14.7903 33.4484 14.4685 34.2253 14.4685C35.8241 14.4685 37.0792 15.7364 37.0792 17.4125C37.0792 19.0887 35.7992 20.3662 34.1905 20.3662C33.4434 20.3662 32.8308 20.0828 32.4025 19.6026V22.6042H30.9033V22.609Z" fill="black"/>
<path d="M42.3243 17.427C42.3243 16.4665 41.6021 15.7941 40.7156 15.7941C39.829 15.7941 39.1069 16.4809 39.1069 17.427C39.1069 18.3636 39.829 19.0599 40.7156 19.0599C41.6021 19.0599 42.3243 18.3876 42.3243 17.427ZM42.3392 20.2798V19.5402C41.901 20.0541 41.2485 20.3711 40.4715 20.3711C38.8479 20.3711 37.6177 19.1176 37.6177 17.427C37.6177 15.7509 38.8977 14.4734 40.5064 14.4734C41.2634 14.4734 41.901 14.7952 42.3392 15.2946V14.5742H43.7936V20.2798H42.3392Z" fill="black"/>
<path d="M28.2786 15.1313C28.2786 15.1313 28.6472 14.4685 29.5586 14.4685C29.9471 14.4685 30.1962 14.5982 30.1962 14.5982V16.0534C30.1962 16.0534 29.6483 15.7268 29.1453 15.794C28.6422 15.8613 28.3235 16.3031 28.3235 16.8987V20.2749H26.8193V14.5742H28.2737V15.1313H28.2786Z" fill="black"/>
</svg>
