<?xml version="1.0" encoding="UTF-8"?><svg width="32" height="32" viewBox="0 0 32 32" fill="none" xmlns="http://www.w3.org/2000/svg">
<path fill-rule="evenodd" clip-rule="evenodd" d="M7 7.5H25C26.933 7.5 28.5 9.067 28.5 11V21C28.5 22.933 26.933 24.5 25 24.5H7C5.067 24.5 3.5 22.933 3.5 21V11C3.5 9.067 5.067 7.5 7 7.5ZM3 11C3 8.79086 4.79086 7 7 7H25C27.2091 7 29 8.79086 29 11V21C29 23.2091 27.2091 25 25 25H7C4.79086 25 3 23.2091 3 21V11ZM14.0251 18.3251C13.7251 18.5051 13.3451 18.5951 12.8851 18.5951C12.4151 18.5951 12.0351 18.5101 11.7451 18.3401C11.4651 18.1601 11.2951 17.9551 11.2351 17.7251H10.6201C10.7001 18.1251 10.9451 18.4601 11.3551 18.7301C11.7651 19.0001 12.2701 19.1351 12.8701 19.1351C13.4901 19.1351 14.0101 18.9901 14.4301 18.7001C14.8601 18.4101 15.0751 18.0001 15.0751 17.4701C15.0751 16.9501 14.8901 16.5601 14.5201 16.3001C14.1601 16.0301 13.6401 15.8101 12.9601 15.6401C12.4401 15.5101 12.0551 15.3601 11.8051 15.1901C11.5651 15.0201 11.4451 14.7701 11.4451 14.4401C11.4451 14.1301 11.5701 13.8801 11.8201 13.6901C12.0701 13.4901 12.4201 13.3901 12.8701 13.3901C13.3001 13.3901 13.6351 13.4801 13.8751 13.6601C14.1151 13.8301 14.2651 14.0351 14.3251 14.2751H14.9551C14.8751 13.8851 14.6501 13.5501 14.2801 13.2701C13.9101 12.9901 13.4451 12.8501 12.8851 12.8501C12.2451 12.8501 11.7451 13.0051 11.3851 13.3151C11.0251 13.6251 10.8451 14.0001 10.8451 14.4401C10.8451 15.3001 11.4601 15.8701 12.6901 16.1501C13.2901 16.2901 13.7351 16.4551 14.0251 16.6451C14.3251 16.8351 14.4751 17.1151 14.4751 17.4851C14.4751 17.8551 14.3251 18.1351 14.0251 18.3251ZM17.7236 14.1401C18.1936 13.6501 18.7836 13.4051 19.4936 13.4051C20.0436 13.4051 20.5036 13.5251 20.8736 13.7651C21.2436 14.0051 21.5036 14.3151 21.6536 14.6951H22.2686C22.0986 14.1451 21.7636 13.7001 21.2636 13.3601C20.7636 13.0201 20.1736 12.8501 19.4936 12.8501C18.6136 12.8501 17.8786 13.1551 17.2886 13.7651C16.7086 14.3751 16.4186 15.1201 16.4186 16.0001C16.4186 16.8801 16.7136 17.6251 17.3036 18.2351C17.8936 18.8351 18.6286 19.1351 19.5086 19.1351C20.1986 19.1351 20.7936 18.9701 21.2936 18.6401C21.8036 18.3101 22.1436 17.8601 22.3136 17.2901H21.6986C21.5586 17.6801 21.2986 17.9951 20.9186 18.2351C20.5386 18.4651 20.0686 18.5801 19.5086 18.5801C18.7986 18.5801 18.2086 18.3401 17.7386 17.8601C17.2686 17.3701 17.0336 16.7501 17.0336 16.0001C17.0336 15.2501 17.2636 14.6301 17.7236 14.1401Z" fill="black"/>
</svg>
